<svg id="Layer_1" data-name="Layer 1" xmlns="http://www.w3.org/2000/svg" viewBox="0 0 722.7 259.6">
  <defs>
    <style>
      .cls-1 {
        fill: #fff;
      }
    </style>
  </defs>
  <path class="cls-1" d="M299,44a10.68,10.68,0,0,0-2.5.3,339.21,339.21,0,0,0-36.9,10.9,118.22,118.22,0,0,0-25.8,12.5,91.36,91.36,0,0,0-9.3,7.1,4.14,4.14,0,0,0-1.7,2.2c1,5.8,6.5,9,11.3,11.4,7.9,3.6,16.7,5.7,25.4,4.7-2.6-2.2-6.2-2.5-8.9-4.5-1.1-.8-1.1-2.3-1.4-3.5-2.7.5-5.2,1.5-7.8,2.2,2.4-1.5,5.1-2.6,7.6-3.9,13.5-5.8,28.1-8.3,42.6-10.3,10.1-1.1,20.4-1.5,30.2-4.5-.8-2.2-1.2-5.4-4-5.8-6.1-3.2-9-9.7-12.5-15.3A7.61,7.61,0,0,0,299,44Z"/>
  <path class="cls-1" d="M424,44a6.57,6.57,0,0,0-5.2,2c-2,2-3.1,4.7-4.6,7a27.06,27.06,0,0,1-8.6,9.5c-.9.6-2.4.5-2.9,1.6a14.43,14.43,0,0,0-1.7,4.5c9.8,2.9,20,3.2,30.1,4.5,16,2,32.1,4.9,46.7,12.1,1.2.7,2.5,1.3,3.7,2-2.6-.7-5.2-1.5-7.9-2.3-.4,1.3-.5,3-1.8,3.8-2.7,1.8-6.2,2.1-8.6,4.4a37,37,0,0,0,12.4-.6c8-1.5,16.1-4.5,21.9-10.4h.1a12.48,12.48,0,0,0,2.2-5.9c-9.3-8.6-20.6-15-32.4-19.5a324.9,324.9,0,0,0-40.8-12.4A10.9,10.9,0,0,0,424,44Z"/>
  <path class="cls-1" d="M361.33,0a1.2,1.2,0,0,0-1.2,1.1h0c-2.3,7.6-4.3,15.4-8.7,22.1a17.27,17.27,0,0,1-6.4,5.9c-6.1,3.5-13,5.5-19.7,7.5a5.93,5.93,0,0,0-2.7,1.7,7.6,7.6,0,0,0,2.6,1.6c7.2,2.3,14.7,4.3,21.1,8.4,3.8,2.4,6.1,6.4,7.9,10.4h0a170.17,170.17,0,0,1,5.8,17c.5,1.6,2.5.7,2.5-.7a153.81,153.81,0,0,1,5.4-16.2l-.1-.4.4-.1a48.32,48.32,0,0,1,3.7-6.2c1.9-2.6,4.6-4.2,7.4-5.7l3-1.4c4.8-2,9.8-3.5,14.7-5,1-.4,2.6-.7,2.3-2.1a8.92,8.92,0,0,0-3.1-1.5c-6.5-2-13.1-4-19.1-7.4a17.25,17.25,0,0,1-6.3-6c-4.2-6.7-6.3-14.4-8.5-21.8.2-.8-.3-1.2-1-1.2Z"/>
  <path class="cls-1" d="M69.13,49.7A69.89,69.89,0,0,0,55.43,51c-15.6,3.1-29.8,12.5-39.5,25A76.38,76.38,0,0,0,3.73,99.3,78,78,0,0,0,2,140.8a97.06,97.06,0,0,0,3.1,10.5h.1a69.61,69.61,0,0,0,7.3,14.4c.4.4.7,1.4,1.4,1.4l-.3.1a72.13,72.13,0,0,0,14.3,15.4h.2a62.1,62.1,0,0,0,17.1,9.9,65.06,65.06,0,0,0,27.6,4.3c15.2-.6,30.8-3.5,43.9-11.5a43.8,43.8,0,0,0,10.8-8.3v-9.7c0-5.1.1-10.2,0-15.2.2-3.3-.3-6.8,1-9.9l-.1.1a13.62,13.62,0,0,1,6.1-6c2.4-1.3,5.4-1.3,7.5-3.1,0-.4-.1-1.1-.1-1.4a31.28,31.28,0,0,0-5.3-.1H72.23c-1.3-.3-2.9.9-1.9,2.2,1.5,1.5,3.8,1.7,5.8,2.3,5.8,1.2,11.4,3.9,15.1,8.7a14.92,14.92,0,0,1,2.3,7.1c.1,7.6-.1,15.1,0,22.7-.3,3.9-.3,7.9-2,11.5-3,3.3-8,1.9-12,2.1A35.74,35.74,0,0,1,61,179.6a56.41,56.41,0,0,1-11.6-15,71.49,71.49,0,0,1-6.2-16.1c-.8-3.2-1.4-6.5-2-9.8a116.56,116.56,0,0,1-.8-17.7,101.33,101.33,0,0,1,3.7-21.9h.1A70,70,0,0,1,55,77.4a49.77,49.77,0,0,1,10.8-10.2,29.9,29.9,0,0,1,23.8-4.6c8.8,2,16.1,8,21.5,15a64.27,64.27,0,0,1,8.5,15.4,69.68,69.68,0,0,1,2.6,7.7c.5,1.6.7,3.4,2,4.6,2.2-4,1.7-8.8,2.2-13.2.2-4.4.4-8.9.4-13.3-.2-4.5.1-9.1-1.4-13.4-8,.2-15.6-2.7-22.6-6.5a67,67,0,0,0-33.7-9.2Z"/>
  <path class="cls-1" d="M136.53,96h-1.1c2.9,2.8,6.7,4.8,8.6,8.4,2.8,5.2,2.8,11.3,2.7,17.1.1,4.9,0,9.8,0,14.7V152a77.22,77.22,0,0,1,8.7-7.4,93.16,93.16,0,0,1,13.6-8V122.2c.1-2.8-.1-5.5.1-8.2a5.13,5.13,0,0,1,5.4-4.3h16.1a19.62,19.62,0,0,1,12,5,34.49,34.49,0,0,1,8.7,14.1l.7-.8c.6-4.5-.1-9.1-.8-13.5a93.46,93.46,0,0,0-3.6-12.5c-15.6,0-31.2.2-46.7-1.6-7.1-1-14.2-2.5-21.2-4a16.48,16.48,0,0,0-3.2-.4Z"/>
  <path class="cls-1" d="M196.73,133.6c-1.6,0-3.2.2-4.7.3a85.07,85.07,0,0,0-42.6,18.4,73.59,73.59,0,0,0-11,12,71.7,71.7,0,0,0-6.9,12,130.36,130.36,0,0,1,14-8.1,6.12,6.12,0,0,1,1.2-.5V170a26.56,26.56,0,0,1-1.9,11.5l.2.4-.5.2c-2.8,5.5-7.7,9.4-12.2,13.4,3.4.1,6.7-1,10.1-1.6a123.21,123.21,0,0,1,27.1-2.5h42.1a97.58,97.58,0,0,0,4.1-14,60.58,60.58,0,0,0,1-11.2c-.1-1,0-2.4-1.1-2.7a35.55,35.55,0,0,1-8.3,13.5,22,22,0,0,1-14.7,6.4h-18.7c-1.5.1-2.8-.9-3.9-1.8a7.87,7.87,0,0,1-1-3.7V159.4l3-.8c2.2-.5,4.3-.9,6.5-1.4a205.66,205.66,0,0,1,34.1-2.9,13.8,13.8,0,0,0,2-.3,10.06,10.06,0,0,0-3.6-4.8c-2.1-1.2-4.5-1.7-6.5-3-3.1-2.7-2.6-7.3-1.9-10.9a9.06,9.06,0,0,0-5.9-1.7Z"/>
  <path class="cls-1" d="M297.43,101.9c-6.6,0-13.2,0-19.8.1-1,2,1.8,2.4,3,3.2,4.7,2.1,6,7.8,5.5,12.5v39.7l-3-3.8c-3.8-5-7.8-9.9-11.6-14.9-2.4-3-4.8-6.1-7.1-9.1l-6.6-8.4-15-19.2c-8,0-15.9-.1-23.9.1v1.5c2,1.6,4.8,2,6.2,4.2,3.1,3.9,2.1,9.1,2.3,13.7,0,4.1-.1,8.2,0,12.3v37.5c-.1,3.9.5,7.8-.7,11.6a12.56,12.56,0,0,1-2.8,4c-1.4,1.2-3.1,1.6-4.6,2.6-.7.4-.4,1.3-.4,1.9,13.2-.1,26.4.1,39.6-.1.4-2.1-1.9-2.5-3.3-3.3-2.5-1.1-4.1-3.6-5-6.1-.8-4.4-.2-8.8-.5-13.2V129.8l-.1-1.3.3-.2c1.3,1.9,2.8,3.7,4.2,5.5,1.6,2.1,3.2,4.2,4.9,6.2,3,3.9,6,7.7,9,11.6,2.5,3.3,5.1,6.5,7.6,9.8,3.9,4.9,7.6,9.9,11.6,14.7,3.2,4.3,6.6,8.5,9.9,12.8a54.83,54.83,0,0,0,6.1,6.6,21.93,21.93,0,0,0,12.2,5.4c-.6-2.2-2.2-3.9-3.1-5.9l-.4-.2.2-.3c-.8-2.8-2-5.5-2.5-8.4a65.59,65.59,0,0,1-.9-7.6c-.3-5.1-.1-10.2-.2-15.3v-17c.1-5.3,0-26.8,0-30.2-.2-4.1,1.3-8.8,5.3-10.7,1.4-.8,3.8-1.2,3.5-3.3-6.7-.1-13.3-.1-19.9-.1Z"/>
  <path class="cls-1" d="M358.13,82.8a37,37,0,0,0-28.4,14,29,29,0,0,0-4.2,9.3v.1a33.46,33.46,0,0,0,1.4,19.3h.1a32.61,32.61,0,0,0,7,11.2h.1c3.8,3.8,8.4,6.8,12.9,9.8,9.2,6.6,18.8,12.6,27.8,19.5a15.73,15.73,0,0,1,4.8,8.7,21,21,0,0,1-1.4,8.6,14.82,14.82,0,0,1-7.4,7.4c-3.8,1.9-8,1.7-12.1,1.2a57.82,57.82,0,0,1-5.7-1.2,43.38,43.38,0,0,1-10.4-5c-1.1-.9-2.2-1.7-3.3-2.6l-1.5-1.3c-1-1-2-2-2.9-3.1a56.77,56.77,0,0,1-5.5-7.4c-2.7-3.9-4.4-8.5-7.3-12.2-1.1,4-1.1,8.1-1.1,12.2,0,1.2,0,2.5.1,3.7a67.68,67.68,0,0,0,1.5,11c1.1,4.5,2.9,9.1,6.1,12.5,4.8-2.9,10.9-2.5,16-.7a63.59,63.59,0,0,0,26,2.4,48.3,48.3,0,0,0,11.8-2.8,29.8,29.8,0,0,0,13-10.3,32.69,32.69,0,0,0,5.3-14.4h.1a80.75,80.75,0,0,0,.5-8.5,34.63,34.63,0,0,0-4.9-17.2,43.91,43.91,0,0,0-7.1-8.4c-6.5-5.4-13.6-9.9-20.6-14.8-6.3-4.3-12.7-8.5-18.8-13-3.7-3-6.3-7.5-5.4-12.4a11.1,11.1,0,0,1,4.3-6.9c4.1-2.8,9.3-2.9,14.1-2.4a23.78,23.78,0,0,1,15.6,8.4h.1c2.5,3,3.9,6.8,6.2,9.9,4.5,3.2,9.1,6.5,14.5,8,.1-2.7-1-5.2-1.9-7.7-1.4-3.6-2.9-7.3-4.5-10.9a95.5,95.5,0,0,0-6.9-12c-3.6,1.8-7.7,1-11.5.1A83.75,83.75,0,0,0,358.13,82.8Z"/>
  <path class="cls-1" d="M444.33,101.9c-13.2.1-26.4-.1-39.6.1-.1,2.4,2.8,2.5,4.3,3.7,3.9,2.4,4.8,7.5,4.5,11.7,0,3.5-.1,7.1.1,10.6l.1.4a19.67,19.67,0,0,0-.1,4.2V149a48.52,48.52,0,0,0,.2,6.6v-.4c.1.3.2.9.3,1.1-.1.1-.2.4-.4.5-.2,4.4,0,8.9-.1,13.3v9.7a30.27,30.27,0,0,1-2.4,9.4l.1.4-.4.1c-2.4,4.3-5.9,7.7-9.4,11,10.9.3,20.3-6.5,30.8-8.5a70.71,70.71,0,0,1,12.1-1.1c.7-2-1.8-2.5-3.1-3.3-3.5-1.5-5.3-5.4-5.5-9,0-3.2.1-6.4,0-9.6s.1-6.3,0-9.4a5.21,5.21,0,0,1,5.1-5.2c9.1,0,18.1-.1,27.2.1a9.43,9.43,0,0,0,2.3,1,10.74,10.74,0,0,1,2,5.1l-.4.4c.1.3.2.8.3,1.1a17.57,17.57,0,0,0-.2,4.6c0,3.9-.1,7.8,0,11.8-.2,3.7-1.9,7.6-5.4,9.2-1.4.8-3.8,1.2-3.4,3.3,13.2,0,26.4.1,39.6,0,.8-1.9-1.7-2.4-2.9-3.1-3.5-1.4-5.3-5.2-5.7-8.7,0-3.1.1-6.2,0-9.3.1-4.7.1-9.5,0-14.2.2-5.4.1-10.7,0-16.1.2-7.3,0-14.5.1-21.8,0-2.9-.2-6,1.3-8.7a9.41,9.41,0,0,1,5.2-4.6c1-.5,3-1.2,2-2.7q-19.8-.15-39.6,0c-.3,2.1,2.1,2.5,3.5,3.3,3.4,1.6,4.9,5.3,5.3,8.8-.1,6.7,0,13.5-.1,20.2a6.2,6.2,0,0,1-2,4.2,7.76,7.76,0,0,1-3.3.9h-25.2a6,6,0,0,1-5.3-2.8c-.7-3.8-.2-7.6-.4-11.4V118c-.4-4.6.5-10.3,5-12.6,1.4-.9,4.3-1.2,3.5-3.5Z"/>
  <path class="cls-1" d="M519,133.6c-1.1,0-2.2.1-3.3.2a8.36,8.36,0,0,0-3.1,1.2c.6,3.1,1.1,6.6-.6,9.4-.7,1.2-2,1.8-2.9,2.8a10.37,10.37,0,0,0-7.9,5c-.5.5-.8,1.9.3,1.8a209,209,0,0,1,27.4,1.8v-21A55.76,55.76,0,0,0,519,133.6Z"/>
  <path class="cls-1" d="M557.63,146.4v16.8l.2-.4a146.37,146.37,0,0,1,25.8,13.3,69.9,69.9,0,0,0-11.4-17.6,68.68,68.68,0,0,0-14.6-12.1Z"/>
  <path class="cls-1" d="M530.33,101.9c-4.4,0-8.8.1-13.3.2,0,.3.1.9.1,1.2,3.5,1.9,7.8,1.8,10.8,4.6,2.9,2.2,3.8,6,3.4,9.5.1,9.7,0,19.3,0,29,0,5.5-.1,11,0,16.5-.1,2.2,0,4.5,0,6.7,0,3.5.1,6.9-.1,10.4-1.3,4.8-6,7.5-10.6,8.4-1.5.5-4,.5-3.9,2.6a25.67,25.67,0,0,0,4.8.1h1.7c14.6.2,29.2,0,43.9.1.9,0,2.9.3,2.5-1.3-1.8-1.4-4.2-1.5-6.3-2.3A12.8,12.8,0,0,1,556,182l-.5-.1.2-.5c-.7-2.8-.5-5.6-.5-8.5V119.8c.2-3.1-.6-6.5,1.2-9.2,2-3.4,5.8-5.1,9.5-5.9,1.5-.5,3.9-.5,4-2.6-5.8-.5-11.7-.1-17.5-.2-7.4.1-14.8,0-22.1,0Z"/>
  <path class="cls-1" d="M722.63,57.8c-5.5.6-10.9,2.3-16.4,3.4-14.9,3.3-29.9,6.6-44.8,10-.9,0-2.4,1.2-1.2,1.9,3.5,1.3,7.6,1.6,10.3,4.6,3.6,3.3,4,8.5,3.8,13.1-.1,4.3-.1,8.6,0,13-.1,6.9-.1,13.7,0,20.6-.2,4.2,0,8.4,0,12.7-6.5-5.5-13-11-19.6-16.4-6.7-5.7-13.5-11.4-20.3-17L609.83,83l-26.3,3.9c-1.4.4-4.2-.2-4,2,2.2,2,5.6,1.4,8.2,2.9,4.5,2,6.8,7,6.4,11.7-.1,6.6-.1,13.3,0,19.9,0,5.6-.1,11.2,0,16.9v29.1c.2,3.6,0,7.3-1.7,10.6a17.28,17.28,0,0,1-8.1,7.7c-1.5.9-3.3,1.3-4.6,2.5-.6,1.6,1.5,1.4,2.4,1.4,3.9-.1,7.8.1,11.8-.1h.4c10.3.2,20.7,0,31,.1,5.6-.1,11.3.2,16.9-.2,1-1.2-.7-2-1.6-2.4-3.3-1.5-6.7-3.2-9-6.1a17.31,17.31,0,0,1-3.6-12.2V115.8c2.8,2.3,5.6,4.7,8.4,7,4.4,3.8,8.9,7.5,13.3,11.2,8.1,6.9,16.4,13.7,24.5,20.6v1.8a58.38,58.38,0,0,0,2.2,14.9,47.08,47.08,0,0,0,3.4,8.8,40.25,40.25,0,0,0,6.1,9.1,47.86,47.86,0,0,0,18.4,13.4c1.2.5,3.1,1,3.7-.6.5-6.4.2-12.9.2-19.4.2-7.2,0-14.4,0-21.5,0-7.8.2-15.6-.1-23.4.3-9.1.1-18.2.1-27.3.1-10.4,0-20.7.1-31.1.3-7.4,5.2-13.9,11.4-17.7,1.1-1.2,3.4-1.9,2.9-3.8Z"/>
  <path class="cls-1" d="M170.13,220.3c-8.8.1-17.7,0-26.5.1.1,1.6,2.1,1.5,3.2,2.1,2.7.8,5.1,3.2,5,6.2v22.6c.1,3-2.3,5.5-5,6.3-1.2.5-3,.5-3.3,2.1,8.9.2,17.7,0,26.6.1,1.1-.1,2.5.4,3.2-.8a32,32,0,0,0-4.3-1.7,6.38,6.38,0,0,1-4.2-6V230a7.28,7.28,0,0,1,1.7-5.5c1.8-2,4.6-2.1,6.8-3.5-.7-1.1-2-.7-3.2-.7Z"/>
  <path class="cls-1" d="M225.23,220.2c-6.8.3-13.5,0-20.2.2l.2,1c2.8,1.1,5.9,2.7,6.2,6,.2,7.9.1,15.9.1,23.8a6.63,6.63,0,0,1-4.8,6.2c-1.3.5-3,.6-3.6,2,4.5.5,9.1.1,13.6.2,1.3-.1,2.9.4,3.9-.6-1.5-1.2-3.4-1.9-4.3-3.6a10.41,10.41,0,0,1-1-5.5v-21c1.5,2.8,2.4,5.9,4.1,8.5l-.2.6.8,1.1c2.9,6.9,6.1,13.7,9.1,20.6,1.9-.9,2.9-2.8,3.8-4.7,3.8-8.5,7.6-16.9,11.4-25.4v20.8c0,2.2-.4,4.6-2,6.2-1,1-2.9,1.2-3.1,2.8,7.8.1,15.5,0,23.3.1,1.1-.2,2.6.4,3.3-.8-2-1.2-4.4-1.3-6.2-2.9a6.33,6.33,0,0,1-2.3-4.8V228.4a6.35,6.35,0,0,1,3.9-6.1c1-.5,2.6-.7,2.8-2.1-6.6-.1-13.1,0-19.7-.1-3.2,7-6.3,14.1-9.5,21.2-3.4-7-6.4-14.2-9.6-21.1Z"/>
  <path class="cls-1" d="M299.53,220.3a4.68,4.68,0,0,0-2.6.5,17,17,0,0,0,3.5,1.9,6.51,6.51,0,0,1,3.5,5.9v22.6a6.51,6.51,0,0,1-4.9,6.2c-1.2.6-3.2.5-3.4,2.1,9.9.1,19.7.1,29.6,0-.1-1.5-1.7-1.5-2.8-2-2.6-.7-5.1-2.7-5.4-5.5-.2-2.6,0-5.3-.1-8,4.4,0,8.9.2,13-1.5,3.6-1.4,7.1-3.9,8.5-7.6a8.73,8.73,0,0,0-2.3-9.2c-3.7-3.8-9.2-5.4-14.4-5.5h-21.3Zm17.4,2.7a9.12,9.12,0,0,1,8.1,6.5,9.36,9.36,0,0,1-2.8,9.6,16.44,16.44,0,0,0-2.2,1.4,16.28,16.28,0,0,1-3,.7c0-6,0-12.1-.1-18.2Z"/>
  <path class="cls-1" d="M389.93,219.3c.6,1.3,1.2,2.6,1.7,4-1.5,3.3-3,6.6-4.4,9.9-.3.6-.6,1.2-.9,1.9-2.8,6.1-5.4,12.3-8.2,18.4a6.68,6.68,0,0,1-4.3,3.9c-1.2.6-3,.5-3.4,2.1,4.8.2,9.6,0,14.4.1,1.1-.1,2.5.4,3.3-.8-1.9-1.3-5.3-1.1-5.8-3.8.1-3,2-5.6,3.1-8.4,5.5.1,11.1,0,16.7,0a69.09,69.09,0,0,1,2.9,7,2.73,2.73,0,0,1-1.8,3.5h0c-1.3.7-3.4.5-3.8,2.3,8.8,0,17.5.1,26.3-.1-.4-1.6-2.2-1.5-3.4-2.1a7.43,7.43,0,0,1-4.5-4.5l-15-33.6c-4.3.2-8.6.2-12.9.2Zm3.8,8.6c2.2,5,4.4,10,6.6,14.9H387C389.23,237.9,391.43,232.9,393.73,227.9Z"/>
  <path class="cls-1" d="M480.23,220.3a24.59,24.59,0,0,0-12.7,3.3c-5.1,2.9-9.1,8.1-9.8,14a19,19,0,0,0,1.4,9.7l.6.9c3.5,6.9,11.1,10.9,18.6,11.4,6.5.4,13.8-1.1,18.3-6.2,1.6-1.9,3.3-4.1,3.2-6.8-1.6,1.6-2.5,3.7-4.4,5-5.4,4.5-14.1,3.9-19.1-1-6.7-6.4-5.8-18.8,1.7-24.1a12.69,12.69,0,0,1,15.8,1.5c1.9,1.7,2.9,4.1,4.4,6.1a34.22,34.22,0,0,0-.4-11.5c-1.5.1-3,.5-4.6.6-1.8-.4-3.4-1.2-5.2-1.7A25.44,25.44,0,0,0,480.23,220.3Z"/>
  <path class="cls-1" d="M534.73,220.3v11.9c.8.1,1.5,0,1.7-.9.8-1.8,1.5-3.9,3.4-5,3.1-2.2,7.1-1.4,10.6-1.5v26.5c.1,3-2.3,5.5-5.1,6.3-1.1.5-2.9.5-3.2,2,9.9.1,19.9.3,29.8-.1-1.3-2.1-4.5-1.6-6.2-3.4-3.8-3.1-1.7-8.4-2.4-12.6v-1.2c.3-5.8,0-11.7.1-17.5,3.8.1,8.3-.8,11.3,2.2,1.9,1.4,1.7,4.5,3.9,5.6.8-4,.2-8.2.3-12.2C564.33,220.3,549.53,220.3,534.73,220.3Z"/>
</svg>
